HIERARCHY
ROOT Root
{
  OFFSET 0.0 0.0 0.0
  CHANNELS 6 Xposition Yposition Zposition Zrotation Yrotation Xrotation
  JOINT Hips
  {
    OFFSET 0.0 100.0 0.0
    CHANNELS 6 Xposition Yposition Zposition Zrotation Yrotation Xrotation
    JOINT Spine1
    {
      OFFSET -0.013727 5.003763 -0.053727
      CHANNELS 3 Zrotation Yrotation Xrotation
      JOINT Spine2
      {
        OFFSET -0.0 7.125301 -0.029825
        CHANNELS 3 Zrotation Yrotation Xrotation
        JOINT Chest
        {
          OFFSET -1e-06 7.550063 -0.815971
          CHANNELS 3 Zrotation Yrotation Xrotation
          JOINT Neck1
          {
            OFFSET -0.181677 26.311295 -0.553348
            CHANNELS 3 Zrotation Yrotation Xrotation
            JOINT Neck2
            {
              OFFSET -3e-06 7.709397 2.302585
              CHANNELS 3 Zrotation Yrotation Xrotation
              JOINT Head
              {
                OFFSET -5e-06 6.128916 1.953709
                CHANNELS 3 Zrotation Yrotation Xrotation
                JOINT HeadEnd
                {
                  OFFSET 0.003598 16.065403 -1.835379
                  CHANNELS 3 Zrotation Yrotation Xrotation
                }
                JOINT Jaw
                {
                  OFFSET 0.002637 0.475592 3.094941
                  CHANNELS 3 Zrotation Yrotation Xrotation
                }
                JOINT LeftEye
                {
                  OFFSET 3.206381 5.380205 7.586883
                  CHANNELS 3 Zrotation Yrotation Xrotation
                }
                JOINT RightEye
                {
                  OFFSET -3.22244 5.361869 7.558234
                  CHANNELS 3 Zrotation Yrotation Xrotation
                }
              }
            }
          }
          JOINT LeftShoulder
          {
            OFFSET 1.621652 23.237164 5.113413
            CHANNELS 3 Zrotation Yrotation Xrotation
            JOINT LeftArm
            {
              OFFSET 14.919846 2e-06 -5.502326
              CHANNELS 3 Zrotation Yrotation Xrotation
              JOINT LeftForeArm
              {
                OFFSET 28.739307 0.0 -0.002588
                CHANNELS 3 Zrotation Yrotation Xrotation
                JOINT LeftHand
                {
                  OFFSET 27.093981 -1e-06 0.002609
                  CHANNELS 3 Zrotation Yrotation Xrotation
                  JOINT LeftHandThumb1
                  {
                    OFFSET 2.276482 -1.392045 3.191413
                    CHANNELS 3 Zrotation Yrotation Xrotation
                    JOINT LeftHandThumb2
                    {
                      OFFSET 4.012836 -1.828127 1.641654
                      CHANNELS 3 Zrotation Yrotation Xrotation
                      JOINT LeftHandThumb3
                      {
                        OFFSET 2.798515 0.0 -3e-06
                        CHANNELS 3 Zrotation Yrotation Xrotation
                        JOINT LeftHandThumbEnd
                        {
                          OFFSET 3.180793 -4e-06 4e-06
                          CHANNELS 3 Zrotation Yrotation Xrotation
                        }
                      }
                    }
                  }
                  JOINT LeftHandIndex1
                  {
                    OFFSET 3.247555 -0.531998 2.296169
                    CHANNELS 3 Zrotation Yrotation Xrotation
                    JOINT LeftHandIndex2
                    {
                      OFFSET 6.364578 0.01206 0.1786
                      CHANNELS 3 Zrotation Yrotation Xrotation
                      JOINT LeftHandIndex3
                      {
                        OFFSET 3.662364 0.0 0.0
                        CHANNELS 3 Zrotation Yrotation Xrotation
                        JOINT LeftHandIndex4
                        {
                          OFFSET 2.329242 4e-06 4e-06
                          CHANNELS 3 Zrotation Yrotation Xrotation
                          JOINT LeftHandIndexEnd
                          {
                            OFFSET 2.759615 -0.180537 -0.113024
                            CHANNELS 3 Zrotation Yrotation Xrotation
                          }
                        }
                      }
                    }
                  }
                  JOINT LeftHandMiddle1
                  {
                    OFFSET 3.163495 0.240981 1.000332
                    CHANNELS 3 Zrotation Yrotation Xrotation
                    JOINT LeftHandMiddle2
                    {
                      OFFSET 6.19078 -0.259278 -1.002548
                      CHANNELS 3 Zrotation Yrotation Xrotation
                      JOINT LeftHandMiddle3
                      {
                        OFFSET 4.35652 -4e-06 -1e-06
                        CHANNELS 3 Zrotation Yrotation Xrotation
                        JOINT LeftHandMiddle4
                        {
                          OFFSET 2.996877 -8e-06 0.0
                          CHANNELS 3 Zrotation Yrotation Xrotation
                          JOINT LeftHandMiddleEnd
                          {
                            OFFSET 2.304287 -0.294569 -0.031741
                            CHANNELS 3 Zrotation Yrotation Xrotation
                          }
                        }
                      }
                    }
                  }
                  JOINT LeftHandRing1
                  {
                    OFFSET 2.882643 -0.053652 -0.322543
                    CHANNELS 3 Zrotation Yrotation Xrotation
                    JOINT LeftHandRing2
                    {
                      OFFSET 5.854541 -0.486202 -1.373841
                      CHANNELS 3 Zrotation Yrotation Xrotation
                      JOINT LeftHandRing3
                      {
                        OFFSET 4.350578 0.0 3e-06
                        CHANNELS 3 Zrotation Yrotation Xrotation
                        JOINT LeftHandRing4
                        {
                          OFFSET 2.651321 7e-06 2e-06
                          CHANNELS 3 Zrotation Yrotation Xrotation
                          JOINT LeftHandRingEnd
                          {
                            OFFSET 1.936105 0.077687 -7.1e-05
                            CHANNELS 3 Zrotation Yrotation Xrotation
                          }
                        }
                      }
                    }
                  }
                  JOINT LeftHandPinky1
                  {
                    OFFSET 2.8655 -0.310005 -1.600378
                    CHANNELS 3 Zrotation Yrotation Xrotation
                    JOINT LeftHandPinky2
                    {
                      OFFSET 5.087849 -1.331141 -1.77123
                      CHANNELS 3 Zrotation Yrotation Xrotation
                      JOINT LeftHandPinky3
                      {
                        OFFSET 3.070974 4e-06 0.0
                        CHANNELS 3 Zrotation Yrotation Xrotation
                        JOINT LeftHandPinky4
                        {
                          OFFSET 1.549672 0.0 1e-06
                          CHANNELS 3 Zrotation Yrotation Xrotation
                          JOINT LeftHandPinkyEnd
                          {
                            OFFSET 1.944893 -0.157802 0.057219
                            CHANNELS 3 Zrotation Yrotation Xrotation
                          }
                        }
                      }
                    }
                  }
                }
              }
            }
          }
          JOINT RightShoulder
          {
            OFFSET -1.380118 23.180309 5.214158
            CHANNELS 3 Zrotation Yrotation Xrotation
            JOINT RightArm
            {
              OFFSET -15.037196 1.2e-05 -5.545604
              CHANNELS 3 Zrotation Yrotation Xrotation
              JOINT RightForeArm
              {
                OFFSET -28.736639 2e-06 -0.002597
                CHANNELS 3 Zrotation Yrotation Xrotation
                JOINT RightHand
                {
                  OFFSET -27.133619 -0.0 0.002613
                  CHANNELS 3 Zrotation Yrotation Xrotation
                  JOINT RightHandThumb1
                  {
                    OFFSET -2.274032 -1.383988 3.163127
                    CHANNELS 3 Zrotation Yrotation Xrotation
                    JOINT RightHandThumb2
                    {
                      OFFSET -4.011429 -1.827466 1.640914
                      CHANNELS 3 Zrotation Yrotation Xrotation
                      JOINT RightHandThumb3
                      {
                        OFFSET -2.794935 -4e-06 -3e-06
                        CHANNELS 3 Zrotation Yrotation Xrotation
                        JOINT RightHandThumbEnd
                        {
                          OFFSET -3.183852 4e-06 1e-06
                          CHANNELS 3 Zrotation Yrotation Xrotation
                        }
                      }
                    }
                  }
                  JOINT RightHandIndex1
                  {
                    OFFSET -3.253266 -0.520057 2.282866
                    CHANNELS 3 Zrotation Yrotation Xrotation
                    JOINT RightHandIndex2
                    {
                      OFFSET -6.341917 0.012471 0.178266
                      CHANNELS 3 Zrotation Yrotation Xrotation
                      JOINT RightHandIndex3
                      {
                        OFFSET -3.654871 -8e-06 -0.0
                        CHANNELS 3 Zrotation Yrotation Xrotation
                        JOINT RightHandIndex4
                        {
                          OFFSET -2.327586 0.0 1e-06
                          CHANNELS 3 Zrotation Yrotation Xrotation
                          JOINT RightHandIndexEnd
                          {
                            OFFSET -2.76179 -0.180656 -0.113078
                            CHANNELS 3 Zrotation Yrotation Xrotation
                          }
                        }
                      }
                    }
                  }
                  JOINT RightHandMiddle1
                  {
                    OFFSET -3.168106 0.246593 1.00103
                    CHANNELS 3 Zrotation Yrotation Xrotation
                    JOINT RightHandMiddle2
                    {
                      OFFSET -6.180828 -0.258836 -1.000895
                      CHANNELS 3 Zrotation Yrotation Xrotation
                      JOINT RightHandMiddle3
                      {
                        OFFSET -4.348901 0.0 -0.0
                        CHANNELS 3 Zrotation Yrotation Xrotation
                        JOINT RightHandMiddle4
                        {
                          OFFSET -3.00024 -4e-06 -2e-06
                          CHANNELS 3 Zrotation Yrotation Xrotation
                          JOINT RightHandMiddleEnd
                          {
                            OFFSET -2.30252 -0.29437 -0.031706
                            CHANNELS 3 Zrotation Yrotation Xrotation
                          }
                        }
                      }
                    }
                  }
                  JOINT RightHandRing1
                  {
                    OFFSET -2.88569 -0.067952 -0.308858
                    CHANNELS 3 Zrotation Yrotation Xrotation
                    JOINT RightHandRing2
                    {
                      OFFSET -5.854198 -0.48613 -1.373731
                      CHANNELS 3 Zrotation Yrotation Xrotation
                      JOINT RightHandRing3
                      {
                        OFFSET -4.33881 -4e-06 -0.0
                        CHANNELS 3 Zrotation Yrotation Xrotation
                        JOINT RightHandRing4
                        {
                          OFFSET -2.654903 -4e-06 4e-06
                          CHANNELS 3 Zrotation Yrotation Xrotation
                          JOINT RightHandRingEnd
                          {
                            OFFSET -1.933568 0.077527 -5.2e-05
                            CHANNELS 3 Zrotation Yrotation Xrotation
                          }
                        }
                      }
                    }
                  }
                  JOINT RightHandPinky1
                  {
                    OFFSET -2.866425 -0.342796 -1.584145
                    CHANNELS 3 Zrotation Yrotation Xrotation
                    JOINT RightHandPinky2
                    {
                      OFFSET -5.091371 -1.332055 -1.772385
                      CHANNELS 3 Zrotation Yrotation Xrotation
                      JOINT RightHandPinky3
                      {
                        OFFSET -3.062664 -4e-06 1e-06
                        CHANNELS 3 Zrotation Yrotation Xrotation
                        JOINT RightHandPinky4
                        {
                          OFFSET -1.546529 4e-06 -2e-06
                          CHANNELS 3 Zrotation Yrotation Xrotation
                          JOINT RightHandPinkyEnd
                          {
                            OFFSET -1.945119 -0.157718 0.057211
                            CHANNELS 3 Zrotation Yrotation Xrotation
                          }
                        }
                      }
                    }
                  }
                }
              }
            }
          }
        }
      }
    }
    JOINT LeftLeg
    {
      OFFSET 10.043214 -8.434526 2.595655
      CHANNELS 3 Zrotation Yrotation Xrotation
      JOINT LeftShin
      {
        OFFSET -1e-06 -43.221752 -0.802913
        CHANNELS 3 Zrotation Yrotation Xrotation
        JOINT LeftFoot
        {
          OFFSET 1e-06 -42.155094 -3.481523
          CHANNELS 3 Zrotation Yrotation Xrotation
          JOINT LeftToeBase
          {
            OFFSET 0.0 -5.059472 13.231529
            CHANNELS 3 Zrotation Yrotation Xrotation
            JOINT LeftToeEnd
            {
              OFFSET -0.009607 -1.647619 6.513017
              CHANNELS 3 Zrotation Yrotation Xrotation
            }
          }
        }
      }
    }
    JOINT RightLeg
    {
      OFFSET -10.047278 -8.29526 2.620317
      CHANNELS 3 Zrotation Yrotation Xrotation
      JOINT RightShin
      {
        OFFSET 1e-06 -43.362206 -0.805556
        CHANNELS 3 Zrotation Yrotation Xrotation
        JOINT RightFoot
        {
          OFFSET 2e-06 -42.117393 -3.478398
          CHANNELS 3 Zrotation Yrotation Xrotation
          JOINT RightToeBase
          {
            OFFSET -0.0 -5.079609 13.284196
            CHANNELS 3 Zrotation Yrotation Xrotation
            JOINT RightToeEnd
            {
              OFFSET 0.009532 -1.634378 6.460591
              CHANNELS 3 Zrotation Yrotation Xrotation
            }
          }
        }
      }
    }
  }
}
MOTION
Frames: 4
Frame Time: 0.03333333333333333
0.0 0.0 0.0 0.0 -0.0 0.0 3.19057 96.179863 2.412522 6.759411 0.484664 -0.043625 -3.230619 0.182466 1.241934 -1.473673 2.359962 -4.048966 -2.653332 -0.130684 9.561108 -0.962101 3.099746 -0.290736 -0.549002 1.807368 -3.747297 2.825711 0.755705 -10.141093 7.7e-05 -2.3e-05 6e-06 0.031766 0.091181 0.017901 0.729052 -3.67205 -10.715078 -0.673848 3.861619 -10.809141 -10.370646 -3.161382 13.496022 -70.414268 -1.517224 -5.660192 -0.271765 -19.582283 0.099621 12.773438 2.495693 -1.784752 -5.882114 9.861297 0.702591 -10.936888 -0.360574 7.156213 1e-06 8.774835 -1e-06 -16.241955 18.466274 5.968477 -1.844034 2.498507 -2.50728 -10.163616 4.67895 4.621112 -20.976055 -4e-06 2e-06 -21.226322 2.451699 -3.594004 -0.0 -6e-06 -1e-06 -1.362684 2.240801 -0.746324 -21.334946 0.584911 3.008325 -13.821236 -3e-06 1e-06 -23.887205 -0.24908 -0.839485 -59.827648 2.455524 -1.386634 -0.294026 1.679689 0.833257 -14.218229 0.093215 1.300581 -34.212097 -0.287565 0.96717 -20.033245 0.964537 1.212844 1e-06 -0.0 -0.0 -3.440393 0.788234 0.501656 -15.928209 -3.167312 2.999709 -6.338835 -1e-06 1e-06 -18.123474 3.648186 -4.905677 -3e-06 0.0 -2e-06 14.634583 11.287313 15.266875 65.479614 14.007311 2.304443 -0.678617 21.690447 -0.244828 -14.369106 -1.210157 -1.421608 2.243543 -5.255041 -3.180161 14.282904 -0.826595 6.952508 -4e-06 -12.690615 -0.0 16.231258 -17.456236 2.859321 1.665668 -1.955924 -2.878303 4.727803 -4.170592 4.993928 11.020537 3e-06 -3e-06 12.109062 -3.735718 -2.866788 0.0 0.0 -1e-06 1.291985 -1.928551 -1.49809 14.80014 0.567469 3.865611 14.242584 -1.341737 -6.660664 19.631985 0.143927 -0.648246 50.204269 -0.207993 -5.489978 0.35303 -1.511152 -0.03194 20.222815 3.684313 2.316632 18.787292 7e-06 -0.0 10.751638 -0.479868 1.397907 -0.0 1e-06 -1e-06 3.27381 0.305947 -0.580111 21.486834 11.830386 2.266133 8.162934 3e-06 -2e-06 18.399099 -3.798986 -4.94058 2e-06 1e-06 -1e-06 -11.753374 1.158471 -22.322906 0.300249 0.361817 24.957678 1.142737 14.485679 -3.555179 1.564332 -2.052012 -3.238838 0.0 -0.0 2e-06 -7.464893 2.76562 8.866381 -0.080111 1.050428 41.860207 14.285085 -7.168619 43.561211 -1.153259 0.820742 -8.689969 -0.0 0.0 -1e-06 
0.0 0.0 0.0 0.0 -0.0 0.0 3.438114 97.045082 4.763677 7.661514 0.898318 -0.748387 -3.85406 0.177467 2.025721 -1.60168 1.855947 -3.822079 -3.058588 -0.551407 9.618897 -0.628598 3.108966 -0.205879 -0.47224 1.635299 -3.662398 2.77976 0.956303 -11.370599 7.7e-05 -2.3e-05 6e-06 0.022631 0.080793 0.032888 0.719782 -3.693888 -10.739682 -0.683671 3.86331 -10.810124 -8.678681 -3.562131 13.365551 -70.61972 -4.033952 -5.292214 -0.64974 -22.364309 0.054322 13.68591 1.817164 -2.682735 -5.882108 9.861289 0.702591 -10.936874 -0.360575 7.156206 1e-06 8.77483 -1e-06 -16.176525 18.435009 5.845598 -1.844032 2.498505 -2.507278 -10.163604 4.678947 4.621109 -20.976032 -4e-06 2e-06 -21.226295 2.451698 -3.594001 -0.0 -6e-06 -0.0 -1.362682 2.240798 -0.746323 -21.334923 0.58491 3.008322 -13.821219 -3e-06 1e-06 -23.88718 -0.249079 -0.839484 -59.98917 2.419571 -1.615163 -0.294025 1.679688 0.833256 -14.218214 0.093215 1.30058 -34.212063 -0.287565 0.967169 -20.033222 0.964536 1.212843 0.0 -0.0 0.0 -3.440388 0.788234 0.501656 -15.928189 -3.167311 2.999707 -6.338829 -1e-06 1e-06 -18.123453 3.648184 -4.905672 -3e-06 0.0 -2e-06 14.033832 11.186522 15.611145 67.201988 13.109226 2.702863 -0.508181 20.409765 -0.123094 -14.10526 -2.105429 -1.953918 2.243541 -5.255039 -3.180157 14.282893 -0.826596 6.952503 -2e-06 -12.690609 1e-06 16.620506 -17.607645 2.553156 1.665667 -1.955922 -2.878298 4.727798 -4.170588 4.993925 11.020528 2e-06 -1e-06 12.109053 -3.735717 -2.866785 -0.0 0.0 -1e-06 1.291985 -1.92855 -1.498088 14.800129 0.567467 3.865608 14.242573 -1.341738 -6.660659 19.631966 0.143925 -0.648245 50.226929 -0.068082 -5.673903 0.353029 -1.511151 -0.031939 20.222792 3.684309 2.31663 18.787273 2e-06 -2e-06 10.751632 -0.479869 1.397906 -0.0 0.0 -1e-06 3.273806 0.305947 -0.580112 21.486814 11.830379 2.266134 8.162928 1e-06 0.0 18.399084 -3.798986 -4.940576 1e-06 -1e-06 -1e-06 -12.811421 1.440585 -17.41778 0.183893 0.302853 20.09094 1.816621 14.264107 -2.724741 1.55452 -2.101352 -2.347728 -0.0 -0.0 2e-06 -8.746061 2.12363 1.960915 0.097921 0.89576 53.467438 13.118965 -6.785431 39.731152 -1.240733 0.878942 -4.649194 -0.0 -0.0 -1e-06 
0.0 0.0 0.0 0.0 -0.0 0.0 3.892863 97.894569 9.078154 7.521171 1.489442 -1.540168 -3.946869 0.113643 2.709729 -1.600147 1.28778 -3.629918 -2.914981 -1.036712 9.903258 -0.375551 3.107382 0.072515 -0.378926 1.581089 -3.622994 2.544343 1.092667 -12.23773 7.7e-05 -2.2e-05 6e-06 0.02011 0.075126 0.042637 0.723447 -3.701154 -10.730292 -0.692074 3.858436 -10.782244 -7.325962 -4.07327 13.280676 -70.437805 -6.746868 -4.781434 -0.807205 -25.210056 0.005456 14.968387 1.570677 -2.808826 -5.882108 9.861292 0.702592 -10.936878 -0.360575 7.156206 1e-06 8.774831 -1e-06 -16.221378 18.528141 5.793118 -1.844034 2.498505 -2.507278 -10.163605 4.678948 4.621109 -20.976038 -4e-06 1e-06 -21.226301 2.451698 -3.594002 2e-06 -6e-06 -0.0 -1.362683 2.2408 -0.746323 -21.334929 0.584908 3.008322 -13.821223 -3e-06 1e-06 -23.887184 -0.24908 -0.839484 -60.229641 2.491514 -1.791913 -0.294024 1.679689 0.833256 -14.218217 0.093214 1.30058 -34.21207 -0.287567 0.967169 -20.033226 0.964535 1.212843 -0.0 -0.0 -0.0 -3.44039 0.788234 0.501655 -15.928198 -3.167312 2.999706 -6.33883 -2e-06 0.0 -18.123459 3.648185 -4.905674 -4e-06 1e-06 -2e-06 13.52588 10.874388 15.815061 68.288734 11.758879 3.171808 -0.493057 20.206543 -0.058152 -13.692189 -2.7728 -2.586123 2.243543 -5.255041 -3.180161 14.282905 -0.826595 6.952507 -3e-06 -12.690614 -0.0 16.763613 -17.707529 2.329244 1.665668 -1.955924 -2.878301 4.727804 -4.170591 4.993927 11.020538 3e-06 -1e-06 12.109064 -3.735718 -2.866786 0.0 0.0 -2e-06 1.291986 -1.928551 -1.49809 14.800142 0.567469 3.86561 14.242585 -1.341737 -6.660664 19.631987 0.143927 -0.648246 50.19199 0.053135 -5.884065 0.353029 -1.511151 -0.031939 20.222815 3.684313 2.31663 18.787292 6e-06 -2e-06 10.751639 -0.479867 1.397906 1e-06 -0.0 0.0 3.27381 0.305947 -0.580112 21.486834 11.830385 2.266134 8.162935 3e-06 -1e-06 18.399099 -3.798984 -4.940579 2e-06 -1e-06 -2e-06 -12.817438 1.573672 -11.862922 0.108321 0.214453 16.721951 1.820492 13.995796 -3.551687 1.557562 -2.164057 -1.992445 0.0 -0.0 2e-06 -8.704049 1.282695 -4.549441 0.198464 0.564394 61.915462 9.421006 -8.613668 32.2034 -1.329392 0.889484 -4.03537 -0.0 0.0 -1e-06 
0.0 0.0 0.0 0.0 -0.0 0.0 4.270613 98.685959 13.378975 6.377344 2.337532 -2.380939 -3.603578 -0.042997 3.301987 -1.456463 0.68426 -3.472232 -2.289001 -1.592969 10.229584 -0.022533 3.029607 0.607338 -0.282024 1.65552 -3.602546 2.254349 1.274973 -12.687298 7.7e-05 -2.2e-05 6e-06 0.016244 0.042009 0.043404 0.730054 -3.73408 -10.728364 -0.704821 3.824294 -10.766792 -5.993294 -4.710328 13.292514 -70.261299 -9.522008 -4.527056 -0.903792 -28.06398 0.020183 16.376099 1.657436 -2.290478 -5.882111 9.861292 0.70259 -10.93688 -0.360575 7.156211 1e-06 8.774831 -1e-06 -16.218616 18.577703 5.80445 -1.844034 2.498506 -2.50728 -10.163609 4.678946 4.621111 -20.976044 -4e-06 1e-06 -21.226305 2.451697 -3.594003 2e-06 -6e-06 -1e-06 -1.362683 2.240801 -0.746324 -21.33493 0.58491 3.008324 -13.821225 -3e-06 1e-06 -23.887188 -0.249081 -0.839484 -60.305935 2.608158 -1.890492 -0.294024 1.679688 0.833256 -14.218222 0.093214 1.30058 -34.212078 -0.287566 0.96717 -20.033232 0.964535 1.212844 1e-06 -0.0 -0.0 -3.440391 0.788235 0.501656 -15.928201 -3.167311 2.999709 -6.338832 -1e-06 1e-06 -18.123463 3.648185 -4.905676 -3e-06 0.0 -2e-06 13.20553 10.314564 15.936831 68.79245 9.986549 3.098072 -0.539278 20.797644 -0.032422 -13.336878 -3.106912 -3.136243 2.243541 -5.255036 -3.180156 14.282885 -0.826595 6.952501 -2e-06 -12.690603 0.0 16.820913 -17.788172 2.251375 1.665665 -1.955921 -2.878298 4.727797 -4.170587 4.993924 11.02052 2e-06 -1e-06 12.109046 -3.735716 -2.866784 0.0 0.0 -0.0 1.291985 -1.928549 -1.498088 14.800123 0.567467 3.865607 14.242567 -1.341737 -6.660656 19.631966 0.143926 -0.648244 50.357792 0.160165 -5.891624 0.353029 -1.51115 -0.031939 20.222784 3.684308 2.31663 18.78727 4e-06 -2e-06 10.751623 -0.479869 1.397907 1e-06 -0.0 2e-06 3.273805 0.305947 -0.58011 21.486805 11.830371 2.266132 8.162923 2e-06 -0.0 18.399076 -3.798984 -4.940573 2e-06 -0.0 -1e-06 -11.657859 1.594153 -6.008504 0.04809 0.081765 12.73717 1.651661 13.347255 -4.12623 1.562843 -2.181068 -1.908659 -0.0 -0.0 2e-06 -7.438045 0.06066 -10.500483 0.200416 0.173113 65.99086 4.542327 -11.99363 24.605474 -1.426893 0.898245 -4.230446 0.0 0.0 -1e-06 
